<?xml version="1.0" standalone="no"?>
<!DOCTYPE svg PUBLIC "-//W3C//DTD SVG 20010904//EN"
 "http://www.w3.org/TR/2001/REC-SVG-20010904/DTD/svg10.dtd">
<svg version="1.0" xmlns="http://www.w3.org/2000/svg"
 width="700.000000pt" height="700.000000pt" viewBox="0 0 700.000000 700.000000"
 preserveAspectRatio="xMidYMid meet">
<metadata>
Created by potrace 1.14, written by Peter Selinger 2001-2017
</metadata>
<g transform="translate(0.000000,700.000000) scale(0.100000,-0.100000)"
fill="#000000" stroke="none">
<path d="M4099 6614 c-244 -44 -677 -245 -781 -363 -51 -58 -113 -186 -137
-282 -37 -144 -49 -436 -21 -488 5 -10 15 -3 35 25 147 201 208 264 340 350
96 62 200 115 209 107 3 -4 6 -1 6 5 0 6 7 9 17 5 11 -4 14 -3 9 5 -5 8 -2 10
9 6 11 -5 -6 -19 -59 -48 -42 -22 -103 -61 -136 -85 -69 -51 -218 -202 -277
-282 -88 -120 -132 -245 -103 -299 11 -21 16 -22 84 -17 203 18 341 81 596
272 140 105 244 173 317 207 60 29 71 30 145 25 97 -6 121 -22 46 -30 -125
-12 -244 -72 -427 -210 -58 -45 -164 -125 -236 -180 -140 -106 -334 -212 -415
-225 -37 -7 -44 -11 -42 -27 10 -58 150 -372 179 -403 7 -7 13 -18 13 -24 0
-6 14 -24 31 -41 31 -29 33 -30 108 -24 42 3 157 20 256 38 189 33 459 50 500
30 11 -5 38 -13 60 -18 35 -7 31 -8 -40 -10 -248 -7 -561 -51 -732 -104 l-65
-21 5 -37 c5 -38 81 -232 118 -303 11 -21 17 -38 14 -38 -4 0 3 -16 15 -35 12
-19 19 -35 15 -35 -3 0 7 -21 22 -47 15 -27 27 -50 27 -53 -1 -3 12 -34 29
-70 16 -36 30 -69 31 -75 1 -5 10 -25 19 -42 10 -18 18 -35 18 -38 0 -2 14
-36 31 -74 l30 -70 332 -5 c383 -6 386 -6 386 -17 0 -4 13 -10 30 -14 69 -15
26 -20 -183 -21 -123 0 -258 -6 -302 -13 -102 -16 -185 -39 -185 -51 0 -6 13
-40 29 -75 17 -36 28 -65 26 -65 -2 0 14 -33 35 -73 22 -41 37 -77 33 -80 -3
-4 0 -7 7 -7 7 0 11 -3 7 -6 -3 -3 17 -48 44 -98 27 -51 46 -96 42 -99 -3 -4
-1 -7 6 -7 7 0 9 -4 6 -10 -3 -5 -1 -10 5 -10 6 0 8 -4 5 -10 -3 -5 -1 -10 4
-10 6 0 10 -3 9 -7 -2 -8 269 -552 303 -609 17 -28 28 -33 87 -44 77 -15 192
-48 208 -61 6 -5 14 -6 17 -2 4 3 7 1 7 -6 0 -8 7 -11 15 -7 8 3 15 1 15 -5 0
-6 7 -8 16 -5 10 4 13 2 8 -6 -5 -8 -2 -9 10 -5 11 5 15 3 10 -5 -5 -8 -2 -9
10 -5 11 5 15 3 10 -5 -5 -8 -1 -9 12 -4 10 4 15 4 12 1 -4 -4 27 -29 67 -57
78 -51 116 -88 48 -45 -128 81 -222 107 -383 107 -94 0 -91 11 -35 -122 18
-42 30 -79 27 -82 -3 -4 0 -6 6 -6 7 0 11 -3 10 -7 -1 -5 6 -23 15 -40 10 -18
17 -35 17 -38 0 -3 7 -19 15 -35 9 -17 13 -30 9 -30 -3 0 4 -15 15 -33 11 -19
18 -37 14 -40 -3 -4 -1 -7 5 -7 7 0 11 -3 10 -8 -1 -4 3 -17 10 -28 6 -12 8
-24 5 -28 -3 -3 -1 -6 6 -6 7 0 10 -4 6 -9 -3 -5 -1 -12 5 -16 6 -4 8 -11 5
-16 -4 -5 -1 -9 5 -9 6 0 8 -5 5 -10 -3 -6 -1 -10 5 -10 6 0 9 -4 5 -9 -3 -5
-1 -12 5 -16 6 -4 8 -11 5 -16 -4 -5 -1 -9 5 -9 6 0 8 -5 5 -10 -3 -5 -2 -10
4 -10 6 0 7 -7 4 -17 -4 -11 -3 -14 5 -9 8 5 10 2 6 -8 -3 -9 -1 -16 5 -16 6
0 8 -7 4 -17 -4 -11 -3 -14 5 -9 7 4 10 2 7 -6 -3 -7 6 -41 19 -76 45 -114 83
-179 -434 753 -183 330 -333 602 -335 603 -9 9 -266 -399 -368 -584 -79 -144
-134 -279 -139 -341 -1 -7 -5 -13 -10 -13 -13 0 -9 95 8 178 31 154 150 407
343 726 56 94 104 180 107 193 4 16 -32 96 -134 295 -170 333 -381 729 -394
743 -19 19 -342 -339 -528 -586 -207 -275 -221 -298 -490 -819 -84 -162 -154
-297 -156 -299 -29 -31 75 242 209 553 151 347 416 744 787 1181 47 55 91 107
98 116 10 14 -13 68 -144 345 -86 181 -160 339 -165 352 l-9 24 -78 -42 c-419
-227 -1186 -906 -1454 -1289 -10 -14 -20 -23 -23 -20 -7 8 141 246 225 362 94
128 372 408 540 543 69 55 224 176 345 269 317 242 355 279 355 339 0 32 -81
228 -120 291 -18 30 -26 34 -48 29 -28 -7 -876 -351 -1037 -421 -105 -46 -284
-152 -512 -304 -90 -59 -163 -103 -163 -98 0 12 325 270 446 355 206 144 403
245 794 409 300 126 380 163 380 175 0 18 -280 90 -428 111 -103 14 -381 6
-470 -14 -46 -11 -64 -12 -69 -3 -3 6 -3 8 2 4 4 -4 13 -3 20 2 6 5 67 26 136
46 96 28 148 38 231 41 123 6 291 -9 426 -38 51 -11 98 -19 105 -16 18 6 -164
115 -348 207 -198 100 -387 167 -503 178 -43 4 -123 5 -176 1 -276 -21 -358
-94 -851 -754 -325 -436 -348 -472 -410 -658 -56 -167 -69 -264 -69 -502 -1
-223 10 -321 60 -535 42 -181 134 -455 200 -598 13 -29 24 -55 24 -58 0 -14
191 -407 201 -414 4 -3 17 -26 29 -50 32 -69 62 -124 69 -130 9 -7 39 -60 52
-92 6 -16 15 -28 19 -28 4 0 11 -11 14 -25 4 -14 11 -25 16 -25 6 0 10 -6 10
-14 0 -8 3 -16 8 -18 4 -1 25 -29 46 -61 22 -31 43 -54 47 -50 4 5 30 79 59
165 136 419 181 496 485 843 87 99 225 259 306 357 228 272 335 373 454 429
90 43 150 36 203 -25 20 -24 21 -31 12 -72 -31 -135 -166 -314 -576 -759 -218
-237 -279 -311 -366 -440 -235 -353 -315 -767 -197 -1035 11 -25 24 -52 30
-60 5 -8 12 -23 15 -32 4 -10 10 -18 15 -18 5 0 9 -5 9 -10 0 -6 6 -18 13 -26
31 -38 195 -201 216 -214 13 -8 29 -20 35 -25 6 -6 36 -26 66 -45 30 -19 57
-37 60 -40 30 -31 353 -184 500 -236 51 -18 66 -20 68 -9 2 7 -13 65 -32 130
-72 237 -86 397 -48 537 64 230 330 798 477 1020 96 143 234 296 297 327 37
18 44 19 69 5 29 -15 59 -60 59 -89 0 -36 -79 -255 -182 -504 -168 -409 -192
-507 -192 -806 -1 -211 12 -299 66 -463 39 -118 88 -174 198 -226 127 -60 190
-70 480 -70 140 -1 352 3 470 8 246 10 325 4 605 -50 337 -64 440 -75 505 -53
39 14 55 47 165 345 95 256 157 388 310 659 189 335 265 515 265 629 0 89 -55
223 -111 270 -42 35 -191 107 -409 196 -283 116 -415 184 -482 250 -49 47 -58
61 -58 91 0 55 23 69 112 69 129 0 421 -61 533 -111 28 -12 53 -22 58 -21 4 1
7 -3 7 -9 0 -5 5 -7 10 -4 6 3 10 1 10 -5 0 -6 5 -8 10 -5 6 3 10 1 10 -5 0
-6 5 -8 10 -5 6 3 10 1 10 -4 0 -6 3 -10 8 -9 12 3 62 -25 62 -34 0 -5 4 -7 8
-4 5 3 18 -3 29 -14 12 -10 23 -16 27 -13 3 3 8 -2 12 -11 3 -9 10 -13 15 -10
5 3 12 -2 15 -10 3 -9 9 -14 14 -11 4 2 16 -3 26 -13 33 -29 144 -84 159 -78
26 10 131 382 170 606 27 150 24 236 -8 303 -54 110 -207 227 -467 357 -176
88 -303 138 -638 251 -332 112 -430 154 -463 200 -75 106 53 169 346 169 292
0 572 -60 1003 -214 101 -36 185 -66 186 -66 10 0 -55 336 -100 512 -44 173
-96 305 -188 483 -119 229 -237 409 -402 611 -172 210 -470 506 -632 629 -96
72 -323 192 -432 229 -128 43 -427 58 -581 30z m458 -1960 c-3 -3 -12 -4 -19
-1 -8 3 -5 6 6 6 11 1 17 -2 13 -5z m-3287 -254 c0 -5 -5 -10 -11 -10 -5 0 -7
5 -4 10 3 6 8 10 11 10 2 0 4 -4 4 -10z m2453 -2700 c-3 -11 -7 -20 -9 -20 -2
0 -4 9 -4 20 0 11 4 20 9 20 5 0 7 -9 4 -20z"/>
</g>
</svg>
